
<svg xmlns="http://www.w3.org/2000/svg" id="Ebene_1" data-name="Ebene 1" viewBox="0 0 465.69 80.53"><defs><style>.cls-1{fill:#f7931e}.cls-2{fill:#0071bc}</style></defs><path d="M28.12 39.62c1.97 2.32 2.95 5.3 2.95 8.95 0 4.71-1.51 8.33-4.52 10.89-3.01 2.56-7.31 3.83-12.91 3.83-4.3 0-8.23-.66-11.81-1.98V57.6c1.87.67 3.82 1.18 5.83 1.53 2.02.35 3.97.52 5.87.52 4.3 0 7.59-.95 9.88-2.84 2.29-1.9 3.44-4.68 3.44-8.35s-1.13-6.42-3.4-8.39-5.71-2.95-10.31-2.95H8.06v-3.67h2.41c4.75 0 8.38-1 10.89-2.99 2.51-1.99 3.76-4.76 3.76-8.32 0-3.24-.97-5.68-2.9-7.33-1.93-1.64-4.79-2.47-8.59-2.47s-7.37.67-10.73 2.02v-3.71c1.44-.6 3.14-1.07 5.09-1.42s3.91-.52 5.85-.52c5.04 0 8.89 1.14 11.54 3.42 2.65 2.28 3.98 5.56 3.98 9.83 0 3.14-.86 5.85-2.57 8.12-1.72 2.27-4.15 3.88-7.29 4.84 3.77.82 6.64 2.38 8.6 4.7ZM37.91 62.39V10.01c4.15-.77 8.16-1.15 12.02-1.15 8.16 0 14.27 2.23 18.34 6.68 4.07 4.45 6.1 11.27 6.1 20.47S72.25 52.22 68 56.55c-4.25 4.33-10.67 6.5-19.26 6.5-3.31 0-6.92-.22-10.84-.65Zm23-5.53c3-1.57 5.25-4.06 6.75-7.47s2.25-7.87 2.25-13.39-.72-9.92-2.16-13.36c-1.44-3.43-3.62-5.96-6.55-7.58-2.93-1.62-6.67-2.43-11.23-2.43-2.52 0-5.11.22-7.78.65v45.54c1.97.26 4.38.4 7.24.4 4.66 0 8.48-.79 11.48-2.36Z" class="cls-2"/><path d="M117.52 39.35c1.74 2.11 2.61 4.92 2.61 8.42 0 5.16-2 9.03-5.99 11.61-4 2.58-10.4 3.87-19.21 3.87-2.16 0-4.54-.1-7.15-.29-2.6-.19-5.01-.44-7.22-.76V10.4c2.45-.53 5.08-.94 7.88-1.24 2.81-.3 5.56-.45 8.24-.45 5.06 0 9.21.53 12.44 1.58 3.23 1.06 5.62 2.66 7.16 4.82s2.32 4.93 2.32 8.32c0 2.86-.73 5.33-2.2 7.42s-3.53 3.52-6.19 4.28c3.12.7 5.55 2.1 7.29 4.21ZM91.51 17.79v13.25h6.98c2.35 0 4.22-.25 5.62-.74 1.39-.49 2.4-1.24 3.02-2.23.62-1 .94-2.3.94-3.91s-.32-3.02-.95-4.03-1.66-1.75-3.08-2.21c-1.42-.47-3.31-.7-5.69-.7s-4.58.19-6.84.58Zm13.34 36.18c1.72-.53 2.95-1.34 3.69-2.45.74-1.1 1.12-2.54 1.12-4.32 0-2.54-.81-4.41-2.43-5.6-1.62-1.19-4.18-1.78-7.69-1.78h-8.03v14.62c2.33.22 4.46.32 6.41.32 2.9 0 5.21-.26 6.93-.79ZM124.25 16c-1.14-1.04-1.71-2.53-1.71-4.45s.57-3.44 1.71-4.48c1.14-1.04 2.86-1.57 5.17-1.57s3.99.53 5.13 1.58c1.14 1.06 1.71 2.54 1.71 4.46s-.57 3.4-1.71 4.45c-1.14 1.04-2.85 1.57-5.13 1.57s-4.03-.52-5.17-1.57Zm-.38 46.64V23.26h11.05v39.38h-11.05ZM147.78 78.84c-2.09-.24-4.02-.61-5.8-1.12v-8.71c3.74 1.03 7.38 1.55 10.91 1.55s6.11-.73 7.74-2.18c1.63-1.45 2.45-3.89 2.45-7.33v-2.63h-.54c-.98 1.44-2.26 2.56-3.82 3.37-1.56.8-3.36 1.21-5.4 1.21-2.54 0-4.88-.68-7-2.05-2.12-1.37-3.83-3.5-5.13-6.39-1.3-2.89-1.94-6.51-1.94-10.85 0-14.04 7-21.07 20.99-21.1 2.35 0 4.75.19 7.2.56 2.45.37 4.67.91 6.66 1.6v34.34c0 4.7-.74 8.54-2.23 11.5-1.49 2.96-3.73 5.14-6.71 6.52-2.99 1.38-6.76 2.07-11.32 2.07-1.94 0-3.96-.12-6.05-.36Zm12.92-25.45c.94-.36 1.73-.88 2.38-1.55V31.46c-1.39-.29-2.68-.43-3.85-.43-2.95 0-5.15.9-6.61 2.7-1.45 1.8-2.18 4.8-2.18 9 0 2.86.29 5.11.86 6.75.58 1.64 1.4 2.8 2.47 3.46 1.07.66 2.42.99 4.05.99.98 0 1.94-.18 2.88-.54Z" class="cls-1"/><path d="M182.16 62.39V10.01c4.15-.77 8.16-1.15 12.02-1.15 8.16 0 14.27 2.23 18.34 6.68 4.07 4.45 6.1 11.27 6.1 20.47s-2.12 16.21-6.37 20.54c-4.25 4.33-10.67 6.5-19.26 6.5-3.31 0-6.92-.22-10.84-.65Zm23-5.53c3-1.57 5.25-4.06 6.75-7.47s2.25-7.87 2.25-13.39-.72-9.92-2.16-13.36c-1.44-3.43-3.62-5.96-6.55-7.58-2.93-1.62-6.67-2.43-11.23-2.43-2.52 0-5.11.22-7.78.65v45.54c1.97.26 4.38.4 7.24.4 4.66 0 8.48-.79 11.48-2.36ZM243.48 24.34c1.96.84 3.44 2.23 4.45 4.16s1.51 4.54 1.51 7.83v26.32h-3.6l-.36-4.36h-.32c-1.2 1.61-2.72 2.84-4.57 3.69-1.85.85-3.86 1.28-6.05 1.28s-4.18-.41-5.85-1.22c-1.67-.82-2.95-2-3.85-3.56-.9-1.56-1.35-3.43-1.35-5.62 0-3.38 1.06-6.02 3.17-7.9 2.11-1.88 5.4-3.05 9.86-3.51l8.75-.97v-4.32c0-2.42-.36-4.32-1.08-5.69s-1.78-2.33-3.19-2.9c-1.4-.56-3.22-.85-5.45-.85-1.46 0-3.05.14-4.77.41-1.72.28-3.4.7-5.06 1.28v-3.67c1.44-.53 3.08-.94 4.93-1.22s3.62-.43 5.33-.43c3.05 0 5.55.42 7.51 1.26Zm-2.72 34.11c1.7-.85 3.2-2.23 4.5-4.12V43.71l-8.57.94c-3.05.31-5.28 1.1-6.7 2.38-1.42 1.27-2.12 3.07-2.12 5.4s.64 4.25 1.93 5.47c1.28 1.22 3.16 1.84 5.63 1.84 1.85 0 3.62-.43 5.33-1.28ZM276.37 58.93v3.78c-1.73.38-3.46.58-5.18.58-3.62 0-6.4-.95-8.32-2.86s-2.88-4.9-2.88-8.98V27.29h-7.27v-3.64h7.27l.65-14.29h3.6v14.29h11.48v3.64h-11.48v23.47c0 3.17.62 5.42 1.85 6.75 1.24 1.33 3.17 2 5.81 2 1.2 0 2.69-.19 4.46-.58ZM298.06 24.34c1.96.84 3.44 2.23 4.45 4.16s1.51 4.54 1.51 7.83v26.32h-3.6l-.36-4.36h-.32c-1.2 1.61-2.72 2.84-4.57 3.69s-3.86 1.28-6.05 1.28-4.18-.41-5.85-1.22c-1.67-.82-2.95-2-3.85-3.56-.9-1.56-1.35-3.43-1.35-5.62 0-3.38 1.06-6.02 3.17-7.9 2.11-1.88 5.4-3.05 9.86-3.51l8.75-.97v-4.32c0-2.42-.36-4.32-1.08-5.69-.72-1.37-1.78-2.33-3.19-2.9-1.4-.56-3.22-.85-5.45-.85-1.46 0-3.05.14-4.77.41-1.72.28-3.4.7-5.06 1.28v-3.67c1.44-.53 3.08-.94 4.93-1.22 1.85-.29 3.62-.43 5.33-.43 3.05 0 5.55.42 7.51 1.26Zm-2.72 34.11c1.7-.85 3.2-2.23 4.5-4.12V43.71l-8.57.94c-3.05.31-5.28 1.1-6.7 2.38-1.42 1.27-2.12 3.07-2.12 5.4s.64 4.25 1.93 5.47c1.28 1.22 3.16 1.84 5.63 1.84 1.85 0 3.62-.43 5.33-1.28ZM316.15 62.78c-2.04-.34-3.98-.83-5.83-1.48v-3.85c4.03 1.37 7.98 2.05 11.84 2.05 4.25 0 7.45-.89 9.59-2.66 2.15-1.78 3.22-4.43 3.22-7.96 0-1.99-.35-3.65-1.04-4.99-.7-1.33-1.79-2.47-3.29-3.4-1.5-.94-3.53-1.79-6.1-2.56l-2.41-.72c-4.2-1.25-7.33-3.02-9.4-5.33-2.06-2.3-3.1-5.29-3.1-8.96 0-2.98.65-5.53 1.96-7.65s3.26-3.75 5.85-4.88 5.76-1.69 9.5-1.69c1.78 0 3.58.13 5.4.38 1.82.25 3.46.61 4.9 1.06v3.85c-3.26-1.01-6.68-1.51-10.26-1.51-4.34 0-7.58.87-9.72 2.61-2.14 1.74-3.2 4.27-3.2 7.58 0 1.92.32 3.53.97 4.84.65 1.31 1.68 2.42 3.1 3.33 1.42.91 3.35 1.75 5.8 2.52l2.41.68c4.44 1.32 7.72 3.14 9.85 5.47 2.12 2.33 3.19 5.36 3.19 9.11 0 3.1-.68 5.74-2.03 7.94-1.36 2.2-3.33 3.86-5.92 5-2.59 1.14-5.72 1.71-9.4 1.71-1.87 0-3.83-.17-5.87-.5ZM345.42 23.65h3.64l.32 4.1h.32c1.1-1.39 2.51-2.52 4.21-3.38s3.6-1.3 5.69-1.3c4.25 0 7.67 1.51 10.26 4.54 2.59 3.02 3.89 7.96 3.89 14.8 0 13.92-6.07 20.88-18.21 20.88-1.75 0-3.71-.13-5.87-.4v15.59h-4.25V23.65Zm20.52 32.02c2.28-2.65 3.42-6.93 3.42-12.83 0-4.08-.44-7.3-1.33-9.65-.89-2.35-2.1-4-3.64-4.93-1.54-.94-3.38-1.4-5.54-1.4-1.82 0-3.56.44-5.22 1.33-1.66.89-2.98 2.18-3.96 3.89v27c.82.17 1.78.31 2.88.41 1.1.11 2.13.16 3.1.16 4.58 0 8.02-1.33 10.3-3.98ZM398.28 24.34c1.96.84 3.44 2.23 4.45 4.16s1.51 4.54 1.51 7.83v26.32h-3.6l-.36-4.36h-.32c-1.2 1.61-2.72 2.84-4.57 3.69s-3.86 1.28-6.05 1.28-4.18-.41-5.85-1.22c-1.67-.82-2.95-2-3.85-3.56-.9-1.56-1.35-3.43-1.35-5.62 0-3.38 1.06-6.02 3.17-7.9 2.11-1.88 5.4-3.05 9.86-3.51l8.75-.97v-4.32c0-2.42-.36-4.32-1.08-5.69-.72-1.37-1.78-2.33-3.19-2.9-1.4-.56-3.22-.85-5.45-.85-1.46 0-3.05.14-4.77.41-1.72.28-3.4.7-5.06 1.28v-3.67c1.44-.53 3.08-.94 4.93-1.22 1.85-.29 3.62-.43 5.33-.43 3.05 0 5.55.42 7.51 1.26Zm-2.72 34.11c1.7-.85 3.2-2.23 4.5-4.12V43.71l-8.57.94c-3.05.31-5.28 1.1-6.7 2.38-1.42 1.27-2.12 3.07-2.12 5.4s.64 4.25 1.93 5.47c1.28 1.22 3.16 1.84 5.63 1.84 1.85 0 3.62-.43 5.33-1.28ZM414.5 58.54c-2.62-3.19-3.92-8.32-3.92-15.37s1.43-12.2 4.28-15.35c2.86-3.16 7.14-4.73 12.85-4.73 2.64 0 5 .3 7.09.9v3.78c-2.35-.62-4.58-.94-6.7-.94-3.05 0-5.52.51-7.42 1.53-1.9 1.02-3.31 2.71-4.25 5.06-.94 2.35-1.4 5.56-1.4 9.61s.43 7.33 1.3 9.76 2.15 4.16 3.85 5.2 3.89 1.57 6.55 1.57c2.42 0 5.11-.52 8.06-1.55v3.78c-2.88 1.03-5.77 1.55-8.68 1.55-5.14 0-9.01-1.6-11.63-4.79ZM464.72 44.68h-23.51c.07 3.7.59 6.64 1.55 8.82.96 2.18 2.36 3.76 4.19 4.72s4.18 1.44 7.04 1.44c2.57 0 5.53-.5 8.89-1.51v3.67c-3.21 1.01-6.32 1.51-9.32 1.51-3.72 0-6.81-.68-9.27-2.03-2.46-1.36-4.31-3.52-5.56-6.48-1.25-2.96-1.87-6.86-1.87-11.68 0-6.86 1.26-11.92 3.78-15.17s6.01-4.88 10.48-4.88 7.79 1.61 10.12 4.82c2.33 3.22 3.49 8.32 3.49 15.3v1.48Zm-20.79-14.81c-1.72 2.29-2.62 6.15-2.72 11.57h19.33c-.1-5.45-.94-9.31-2.54-11.59-1.6-2.28-3.89-3.42-6.89-3.42s-5.47 1.15-7.18 3.44Z" class="cls-2"/></svg>